<svg width="123" height="25" viewBox="0 0 123 25" fill="none" xmlns="http://www.w3.org/2000/svg">
<path d="M33.5541 25C33.3952 24.94 33.237 24.8799 33.0795 24.8198L11.6942 16.7006C4.75756 14.0671 0.171021 7.41976 0.171021 1.52588e-05C0.227672 4.12601 6.90384 14.8329 33.0795 24.8198L33.5541 25Z" fill="black"/>
<path d="M0.171009 0C0.32991 0.0600334 0.488106 0.120094 0.645596 0.180182L22.0309 8.29936C28.9675 10.9329 33.5541 17.5802 33.5541 25C33.4974 20.874 26.8213 10.1671 0.645596 0.180182L0.171009 0Z" fill="black"/>
<path d="M33.725 0.126671C33.644 0.244463 33.563 0.361731 33.4819 0.478476L26.0789 11.1933C20.1603 19.7597 10.4121 24.8732 -4.19617e-05 24.8732C5.56593 24.8312 20.0096 19.8822 33.4819 0.478476L33.725 0.126671Z" fill="black"/>
<path d="M0 24.8733C0.080985 24.7555 0.162007 24.6383 0.243065 24.5215L7.64604 13.8067C13.5647 5.2403 23.3129 0.126831 33.725 0.126831C28.159 0.168826 13.7154 5.1178 0.243065 24.5215L0 24.8733Z" fill="black"/>
<g filter="url(#filter0_d_104_37)">
<path d="M33.6879 11.809C33.6879 11.2543 33.8079 10.761 34.0479 10.329C34.2879 9.89167 34.6212 9.553 35.0479 9.313C35.4799 9.06767 35.9679 8.945 36.5119 8.945C37.1786 8.945 37.7492 9.121 38.2239 9.473C38.6986 9.825 39.0159 10.305 39.1759 10.913H37.6719C37.5599 10.6783 37.3999 10.4997 37.1919 10.377C36.9892 10.2543 36.7572 10.193 36.4959 10.193C36.0746 10.193 35.7332 10.3397 35.4719 10.633C35.2106 10.9263 35.0799 11.3183 35.0799 11.809C35.0799 12.2997 35.2106 12.6917 35.4719 12.985C35.7332 13.2783 36.0746 13.425 36.4959 13.425C36.7572 13.425 36.9892 13.3637 37.1919 13.241C37.3999 13.1183 37.5599 12.9397 37.6719 12.705H39.1759C39.0159 13.313 38.6986 13.793 38.2239 14.145C37.7492 14.4917 37.1786 14.665 36.5119 14.665C35.9679 14.665 35.4799 14.545 35.0479 14.305C34.6212 14.0597 34.2879 13.721 34.0479 13.289C33.8079 12.857 33.6879 12.3637 33.6879 11.809ZM41.3816 10.905C41.5416 10.6597 41.7416 10.4677 41.9816 10.329C42.2216 10.185 42.4883 10.113 42.7816 10.113V11.561H42.4056C42.0643 11.561 41.8083 11.6357 41.6376 11.785C41.467 11.929 41.3816 12.185 41.3816 12.553V14.625H40.0136V10.161H41.3816V10.905ZM47.9955 10.161L45.1955 16.745H43.7235L44.7475 14.473L42.9315 10.161H44.4595L45.4915 12.953L46.5155 10.161H47.9955ZM50.3062 14.689C49.9169 14.689 49.5702 14.6223 49.2662 14.489C48.9622 14.3557 48.7222 14.1743 48.5462 13.945C48.3702 13.7103 48.2715 13.449 48.2502 13.161H49.6022C49.6182 13.3157 49.6902 13.441 49.8182 13.537C49.9462 13.633 50.1035 13.681 50.2902 13.681C50.4609 13.681 50.5915 13.649 50.6822 13.585C50.7782 13.5157 50.8262 13.4277 50.8262 13.321C50.8262 13.193 50.7595 13.0997 50.6262 13.041C50.4929 12.977 50.2769 12.9077 49.9782 12.833C49.6582 12.7583 49.3915 12.681 49.1782 12.601C48.9649 12.5157 48.7809 12.385 48.6262 12.209C48.4715 12.0277 48.3942 11.785 48.3942 11.481C48.3942 11.225 48.4635 10.993 48.6022 10.785C48.7462 10.5717 48.9542 10.4037 49.2262 10.281C49.5035 10.1583 49.8315 10.097 50.2102 10.097C50.7702 10.097 51.2102 10.2357 51.5302 10.513C51.8555 10.7903 52.0422 11.1583 52.0902 11.617H50.8262C50.8049 11.4623 50.7355 11.3397 50.6182 11.249C50.5062 11.1583 50.3569 11.113 50.1702 11.113C50.0102 11.113 49.8875 11.145 49.8022 11.209C49.7169 11.2677 49.6742 11.3503 49.6742 11.457C49.6742 11.585 49.7409 11.681 49.8742 11.745C50.0129 11.809 50.2262 11.873 50.5142 11.937C50.8449 12.0223 51.1142 12.1077 51.3222 12.193C51.5302 12.273 51.7115 12.4063 51.8662 12.593C52.0262 12.7743 52.1089 13.0197 52.1142 13.329C52.1142 13.5903 52.0395 13.825 51.8902 14.033C51.7462 14.2357 51.5355 14.3957 51.2582 14.513C50.9862 14.6303 50.6689 14.689 50.3062 14.689ZM55.4391 13.465V14.625H54.7431C54.2471 14.625 53.8605 14.505 53.5831 14.265C53.3058 14.0197 53.1671 13.6223 53.1671 13.073V11.297H52.6231V10.161H53.1671V9.073H54.5351V10.161H55.4311V11.297H54.5351V13.089C54.5351 13.2223 54.5671 13.3183 54.6311 13.377C54.6951 13.4357 54.8018 13.465 54.9511 13.465H55.4391ZM55.9291 12.385C55.9291 11.9263 56.0145 11.5237 56.1851 11.177C56.3611 10.8303 56.5985 10.5637 56.8971 10.377C57.1958 10.1903 57.5291 10.097 57.8971 10.097C58.2118 10.097 58.4865 10.161 58.7211 10.289C58.9611 10.417 59.1451 10.585 59.2731 10.793V10.161H60.6411V14.625H59.2731V13.993C59.1398 14.201 58.9531 14.369 58.7131 14.497C58.4785 14.625 58.2038 14.689 57.8891 14.689C57.5265 14.689 57.1958 14.5957 56.8971 14.409C56.5985 14.217 56.3611 13.9477 56.1851 13.601C56.0145 13.249 55.9291 12.8437 55.9291 12.385ZM59.2731 12.393C59.2731 12.0517 59.1771 11.7823 58.9851 11.585C58.7985 11.3877 58.5691 11.289 58.2971 11.289C58.0251 11.289 57.7931 11.3877 57.6011 11.585C57.4145 11.777 57.3211 12.0437 57.3211 12.385C57.3211 12.7263 57.4145 12.9983 57.6011 13.201C57.7931 13.3983 58.0251 13.497 58.2971 13.497C58.5691 13.497 58.7985 13.3983 58.9851 13.201C59.1771 13.0037 59.2731 12.7343 59.2731 12.393ZM62.9988 8.705V14.625H61.6308V8.705H62.9988ZM65.4535 11.809C65.4535 11.2543 65.5735 10.761 65.8135 10.329C66.0535 9.89167 66.3868 9.553 66.8135 9.313C67.2455 9.06767 67.7335 8.945 68.2775 8.945C68.9442 8.945 69.5148 9.121 69.9895 9.473C70.4642 9.825 70.7815 10.305 70.9415 10.913H69.4375C69.3255 10.6783 69.1655 10.4997 68.9575 10.377C68.7548 10.2543 68.5228 10.193 68.2615 10.193C67.8402 10.193 67.4988 10.3397 67.2375 10.633C66.9762 10.9263 66.8455 11.3183 66.8455 11.809C66.8455 12.2997 66.9762 12.6917 67.2375 12.985C67.4988 13.2783 67.8402 13.425 68.2615 13.425C68.5228 13.425 68.7548 13.3637 68.9575 13.241C69.1655 13.1183 69.3255 12.9397 69.4375 12.705H70.9415C70.7815 13.313 70.4642 13.793 69.9895 14.145C69.5148 14.4917 68.9442 14.665 68.2775 14.665C67.7335 14.665 67.2455 14.545 66.8135 14.305C66.3868 14.0597 66.0535 13.721 65.8135 13.289C65.5735 12.857 65.4535 12.3637 65.4535 11.809ZM73.1473 8.705V14.625H71.7793V8.705H73.1473ZM78.3466 12.321C78.3466 12.449 78.3386 12.5823 78.3226 12.721H75.2266C75.248 12.9983 75.336 13.2117 75.4906 13.361C75.6506 13.505 75.8453 13.577 76.0746 13.577C76.416 13.577 76.6533 13.433 76.7866 13.145H78.2426C78.168 13.4383 78.032 13.7023 77.8346 13.937C77.6426 14.1717 77.4 14.3557 77.1066 14.489C76.8133 14.6223 76.4853 14.689 76.1226 14.689C75.6853 14.689 75.296 14.5957 74.9546 14.409C74.6133 14.2223 74.3466 13.9557 74.1546 13.609C73.9626 13.2623 73.8666 12.857 73.8666 12.393C73.8666 11.929 73.96 11.5237 74.1466 11.177C74.3386 10.8303 74.6053 10.5637 74.9466 10.377C75.288 10.1903 75.68 10.097 76.1226 10.097C76.5546 10.097 76.9386 10.1877 77.2746 10.369C77.6106 10.5503 77.872 10.809 78.0586 11.145C78.2506 11.481 78.3466 11.873 78.3466 12.321ZM76.9466 11.961C76.9466 11.7263 76.8666 11.5397 76.7066 11.401C76.5466 11.2623 76.3466 11.193 76.1066 11.193C75.8773 11.193 75.6826 11.2597 75.5226 11.393C75.368 11.5263 75.272 11.7157 75.2346 11.961H76.9466ZM78.7963 12.385C78.7963 11.9263 78.8817 11.5237 79.0523 11.177C79.2283 10.8303 79.4657 10.5637 79.7643 10.377C80.063 10.1903 80.3963 10.097 80.7643 10.097C81.079 10.097 81.3537 10.161 81.5883 10.289C81.8283 10.417 82.0123 10.585 82.1403 10.793V10.161H83.5083V14.625H82.1403V13.993C82.007 14.201 81.8203 14.369 81.5803 14.497C81.3457 14.625 81.071 14.689 80.7563 14.689C80.3937 14.689 80.063 14.5957 79.7643 14.409C79.4657 14.217 79.2283 13.9477 79.0523 13.601C78.8817 13.249 78.7963 12.8437 78.7963 12.385ZM82.1403 12.393C82.1403 12.0517 82.0443 11.7823 81.8523 11.585C81.6657 11.3877 81.4363 11.289 81.1643 11.289C80.8923 11.289 80.6603 11.3877 80.4683 11.585C80.2817 11.777 80.1883 12.0437 80.1883 12.385C80.1883 12.7263 80.2817 12.9983 80.4683 13.201C80.6603 13.3983 80.8923 13.497 81.1643 13.497C81.4363 13.497 81.6657 13.3983 81.8523 13.201C82.0443 13.0037 82.1403 12.7343 82.1403 12.393ZM85.866 10.905C86.026 10.6597 86.226 10.4677 86.466 10.329C86.706 10.185 86.9727 10.113 87.266 10.113V11.561H86.89C86.5487 11.561 86.2927 11.6357 86.122 11.785C85.9513 11.929 85.866 12.185 85.866 12.553V14.625H84.498V10.161H85.866V10.905ZM90.9832 10.105V11.241H92.8152V12.297H90.9832V13.529H93.0552V14.625H89.6152V9.009H93.0552V10.105H90.9832ZM96.6633 10.113C97.186 10.113 97.602 10.2837 97.9113 10.625C98.226 10.961 98.3833 11.425 98.3833 12.017V14.625H97.0233V12.201C97.0233 11.9023 96.946 11.6703 96.7913 11.505C96.6367 11.3397 96.4287 11.257 96.1673 11.257C95.906 11.257 95.698 11.3397 95.5433 11.505C95.3887 11.6703 95.3113 11.9023 95.3113 12.201V14.625H93.9433V10.161H95.3113V10.753C95.45 10.5557 95.6367 10.401 95.8713 10.289C96.106 10.1717 96.37 10.113 96.6633 10.113ZM103.542 12.321C103.542 12.449 103.534 12.5823 103.518 12.721H100.422C100.443 12.9983 100.531 13.2117 100.686 13.361C100.846 13.505 101.041 13.577 101.27 13.577C101.611 13.577 101.849 13.433 101.982 13.145H103.438C103.363 13.4383 103.227 13.7023 103.03 13.937C102.838 14.1717 102.595 14.3557 102.302 14.489C102.009 14.6223 101.681 14.689 101.318 14.689C100.881 14.689 100.491 14.5957 100.15 14.409C99.8086 14.2223 99.542 13.9557 99.35 13.609C99.158 13.2623 99.062 12.857 99.062 12.393C99.062 11.929 99.1553 11.5237 99.342 11.177C99.534 10.8303 99.8006 10.5637 100.142 10.377C100.483 10.1903 100.875 10.097 101.318 10.097C101.75 10.097 102.134 10.1877 102.47 10.369C102.806 10.5503 103.067 10.809 103.254 11.145C103.446 11.481 103.542 11.873 103.542 12.321ZM102.142 11.961C102.142 11.7263 102.062 11.5397 101.902 11.401C101.742 11.2623 101.542 11.193 101.302 11.193C101.073 11.193 100.878 11.2597 100.718 11.393C100.563 11.5263 100.467 11.7157 100.43 11.961H102.142ZM105.632 10.905C105.792 10.6597 105.992 10.4677 106.232 10.329C106.472 10.185 106.738 10.113 107.032 10.113V11.561H106.656C106.314 11.561 106.058 11.6357 105.888 11.785C105.717 11.929 105.632 12.185 105.632 12.553V14.625H104.264V10.161H105.632V10.905ZM109.382 10.097C109.696 10.097 109.971 10.161 110.206 10.289C110.446 10.417 110.63 10.585 110.758 10.793V10.161H112.126V14.617C112.126 15.0277 112.043 15.3983 111.878 15.729C111.718 16.065 111.47 16.3317 111.134 16.529C110.803 16.7263 110.39 16.825 109.894 16.825C109.232 16.825 108.696 16.6677 108.286 16.353C107.875 16.0437 107.64 15.6223 107.582 15.089H108.934C108.976 15.2597 109.078 15.393 109.238 15.489C109.398 15.5903 109.595 15.641 109.83 15.641C110.112 15.641 110.336 15.5583 110.502 15.393C110.672 15.233 110.758 14.9743 110.758 14.617V13.985C110.624 14.193 110.44 14.3637 110.206 14.497C109.971 14.625 109.696 14.689 109.382 14.689C109.014 14.689 108.68 14.5957 108.382 14.409C108.083 14.217 107.846 13.9477 107.67 13.601C107.499 13.249 107.414 12.8437 107.414 12.385C107.414 11.9263 107.499 11.5237 107.67 11.177C107.846 10.8303 108.083 10.5637 108.382 10.377C108.68 10.1903 109.014 10.097 109.382 10.097ZM110.758 12.393C110.758 12.0517 110.662 11.7823 110.47 11.585C110.283 11.3877 110.054 11.289 109.782 11.289C109.51 11.289 109.278 11.3877 109.086 11.585C108.899 11.777 108.806 12.0437 108.806 12.385C108.806 12.7263 108.899 12.9983 109.086 13.201C109.278 13.3983 109.51 13.497 109.782 13.497C110.054 13.497 110.283 13.3983 110.47 13.201C110.662 13.0037 110.758 12.7343 110.758 12.393ZM117.675 10.161L114.875 16.745H113.403L114.427 14.473L112.611 10.161H114.139L115.171 12.953L116.195 10.161H117.675Z" fill="black"/>
</g>
<defs>
<filter id="filter0_d_104_37" x="29.6879" y="8.70496" width="91.9873" height="16.12" filterUnits="userSpaceOnUse" color-interpolation-filters="sRGB">
<feFlood flood-opacity="0" result="BackgroundImageFix"/>
<feColorMatrix in="SourceAlpha" type="matrix" values="0 0 0 0 0 0 0 0 0 0 0 0 0 0 0 0 0 0 127 0" result="hardAlpha"/>
<feOffset dy="4"/>
<feGaussianBlur stdDeviation="2"/>
<feComposite in2="hardAlpha" operator="out"/>
<feColorMatrix type="matrix" values="0 0 0 0 0 0 0 0 0 0 0 0 0 0 0 0 0 0 0.25 0"/>
<feBlend mode="normal" in2="BackgroundImageFix" result="effect1_dropShadow_104_37"/>
<feBlend mode="normal" in="SourceGraphic" in2="effect1_dropShadow_104_37" result="shape"/>
</filter>
</defs>
</svg>
