<svg width="125" height="35" viewBox="0 0 150 35" fill="none" xmlns="http://www.w3.org/2000/svg">
<path d="M40.9196 35C40.7258 34.916 40.5329 34.8319 40.3409 34.7477L16.0273 24.1507C6.4202 19.9634 0.208557 10.48 0.208557 2.28882e-05C0.277644 5.77642 8.41932 20.7661 40.3409 34.7477L40.9196 35Z" fill="black"/>
<path d="M0.208557 0C0.402336 0.0840454 0.595253 0.168129 0.787308 0.25225L25.1008 10.8493C34.708 15.0366 40.9196 24.52 40.9196 35C40.8505 29.2236 32.7089 14.2339 0.787308 0.25225L0.208557 0Z" fill="black"/>
<path d="M41.128 0.177292C41.0292 0.342201 40.9304 0.506378 40.8316 0.669819L30.7333 17.4488C24.2451 28.2295 12.5825 34.8224 -8.01086e-05 34.8224C6.78769 34.7636 24.4019 27.835 40.8316 0.669819L41.128 0.177292Z" fill="black"/>
<path d="M0 34.8227C0.0987627 34.6578 0.197571 34.4936 0.296422 34.3302L10.3947 17.5512C16.8829 6.77047 28.5455 0.177612 41.1281 0.177612C34.3403 0.236405 16.7261 7.16496 0.296422 34.3302L0 34.8227Z" fill="black"/>
<g filter="url(#filter0_d_104_37)">
<path d="M41.0249 14.059C41.0249 13.5043 41.1449 13.011 41.3849 12.579C41.6249 12.1417 41.9582 11.803 42.3849 11.563C42.8169 11.3177 43.3049 11.195 43.8489 11.195C44.5155 11.195 45.0862 11.371 45.5609 11.723C46.0355 12.075 46.3529 12.555 46.5129 13.163H45.0089C44.8969 12.9283 44.7369 12.7497 44.5289 12.627C44.3262 12.5043 44.0942 12.443 43.8329 12.443C43.4115 12.443 43.0702 12.5897 42.8089 12.883C42.5475 13.1763 42.4169 13.5683 42.4169 14.059C42.4169 14.5497 42.5475 14.9417 42.8089 15.235C43.0702 15.5283 43.4115 15.675 43.8329 15.675C44.0942 15.675 44.3262 15.6137 44.5289 15.491C44.7369 15.3683 44.8969 15.1897 45.0089 14.955H46.5129C46.3529 15.563 46.0355 16.043 45.5609 16.395C45.0862 16.7417 44.5155 16.915 43.8489 16.915C43.3049 16.915 42.8169 16.795 42.3849 16.555C41.9582 16.3097 41.6249 15.971 41.3849 15.539C41.1449 15.107 41.0249 14.6137 41.0249 14.059ZM48.7186 13.155C48.8786 12.9097 49.0786 12.7177 49.3186 12.579C49.5586 12.435 49.8253 12.363 50.1186 12.363V13.811H49.7426C49.4013 13.811 49.1453 13.8857 48.9746 14.035C48.8039 14.179 48.7186 14.435 48.7186 14.803V16.875H47.3506V12.411H48.7186V13.155ZM55.3325 12.411L52.5325 18.995H51.0605L52.0845 16.723L50.2685 12.411H51.7965L52.8285 15.203L53.8525 12.411H55.3325ZM57.6432 16.939C57.2538 16.939 56.9072 16.8723 56.6032 16.739C56.2992 16.6057 56.0592 16.4243 55.8832 16.195C55.7072 15.9603 55.6085 15.699 55.5872 15.411H56.9392C56.9552 15.5657 57.0272 15.691 57.1552 15.787C57.2832 15.883 57.4405 15.931 57.6272 15.931C57.7978 15.931 57.9285 15.899 58.0192 15.835C58.1152 15.7657 58.1632 15.6777 58.1632 15.571C58.1632 15.443 58.0965 15.3497 57.9632 15.291C57.8298 15.227 57.6138 15.1577 57.3152 15.083C56.9952 15.0083 56.7285 14.931 56.5152 14.851C56.3018 14.7657 56.1178 14.635 55.9632 14.459C55.8085 14.2777 55.7312 14.035 55.7312 13.731C55.7312 13.475 55.8005 13.243 55.9392 13.035C56.0832 12.8217 56.2912 12.6537 56.5632 12.531C56.8405 12.4083 57.1685 12.347 57.5472 12.347C58.1072 12.347 58.5472 12.4857 58.8672 12.763C59.1925 13.0403 59.3792 13.4083 59.4272 13.867H58.1632C58.1418 13.7123 58.0725 13.5897 57.9552 13.499C57.8432 13.4083 57.6938 13.363 57.5072 13.363C57.3472 13.363 57.2245 13.395 57.1392 13.459C57.0538 13.5177 57.0112 13.6003 57.0112 13.707C57.0112 13.835 57.0778 13.931 57.2112 13.995C57.3498 14.059 57.5632 14.123 57.8512 14.187C58.1818 14.2723 58.4512 14.3577 58.6592 14.443C58.8672 14.523 59.0485 14.6563 59.2032 14.843C59.3632 15.0243 59.4458 15.2697 59.4512 15.579C59.4512 15.8403 59.3765 16.075 59.2272 16.283C59.0832 16.4857 58.8725 16.6457 58.5952 16.763C58.3232 16.8803 58.0058 16.939 57.6432 16.939ZM62.7761 15.715V16.875H62.0801C61.5841 16.875 61.1974 16.755 60.9201 16.515C60.6428 16.2697 60.5041 15.8723 60.5041 15.323V13.547H59.9601V12.411H60.5041V11.323H61.8721V12.411H62.7681V13.547H61.8721V15.339C61.8721 15.4723 61.9041 15.5683 61.9681 15.627C62.0321 15.6857 62.1388 15.715 62.2881 15.715H62.7761ZM63.2661 14.635C63.2661 14.1763 63.3514 13.7737 63.5221 13.427C63.6981 13.0803 63.9354 12.8137 64.2341 12.627C64.5328 12.4403 64.8661 12.347 65.2341 12.347C65.5488 12.347 65.8234 12.411 66.0581 12.539C66.2981 12.667 66.4821 12.835 66.6101 13.043V12.411H67.9781V16.875H66.6101V16.243C66.4768 16.451 66.2901 16.619 66.0501 16.747C65.8154 16.875 65.5408 16.939 65.2261 16.939C64.8634 16.939 64.5328 16.8457 64.2341 16.659C63.9354 16.467 63.6981 16.1977 63.5221 15.851C63.3514 15.499 63.2661 15.0937 63.2661 14.635ZM66.6101 14.643C66.6101 14.3017 66.5141 14.0323 66.3221 13.835C66.1354 13.6377 65.9061 13.539 65.6341 13.539C65.3621 13.539 65.1301 13.6377 64.9381 13.835C64.7514 14.027 64.6581 14.2937 64.6581 14.635C64.6581 14.9763 64.7514 15.2483 64.9381 15.451C65.1301 15.6483 65.3621 15.747 65.6341 15.747C65.9061 15.747 66.1354 15.6483 66.3221 15.451C66.5141 15.2537 66.6101 14.9843 66.6101 14.643ZM70.3358 10.955V16.875H68.9678V10.955H70.3358ZM72.7905 14.059C72.7905 13.5043 72.9105 13.011 73.1505 12.579C73.3905 12.1417 73.7238 11.803 74.1505 11.563C74.5825 11.3177 75.0705 11.195 75.6145 11.195C76.2812 11.195 76.8518 11.371 77.3265 11.723C77.8012 12.075 78.1185 12.555 78.2785 13.163H76.7745C76.6625 12.9283 76.5025 12.7497 76.2945 12.627C76.0918 12.5043 75.8598 12.443 75.5985 12.443C75.1772 12.443 74.8358 12.5897 74.5745 12.883C74.3132 13.1763 74.1825 13.5683 74.1825 14.059C74.1825 14.5497 74.3132 14.9417 74.5745 15.235C74.8358 15.5283 75.1772 15.675 75.5985 15.675C75.8598 15.675 76.0918 15.6137 76.2945 15.491C76.5025 15.3683 76.6625 15.1897 76.7745 14.955H78.2785C78.1185 15.563 77.8012 16.043 77.3265 16.395C76.8518 16.7417 76.2812 16.915 75.6145 16.915C75.0705 16.915 74.5825 16.795 74.1505 16.555C73.7238 16.3097 73.3905 15.971 73.1505 15.539C72.9105 15.107 72.7905 14.6137 72.7905 14.059ZM80.4842 10.955V16.875H79.1162V10.955H80.4842ZM85.6836 14.571C85.6836 14.699 85.6756 14.8323 85.6596 14.971H82.5636C82.5849 15.2483 82.6729 15.4617 82.8276 15.611C82.9876 15.755 83.1823 15.827 83.4116 15.827C83.7529 15.827 83.9903 15.683 84.1236 15.395H85.5796C85.5049 15.6883 85.3689 15.9523 85.1716 16.187C84.9796 16.4217 84.7369 16.6057 84.4436 16.739C84.1503 16.8723 83.8223 16.939 83.4596 16.939C83.0223 16.939 82.6329 16.8457 82.2916 16.659C81.9503 16.4723 81.6836 16.2057 81.4916 15.859C81.2996 15.5123 81.2036 15.107 81.2036 14.643C81.2036 14.179 81.2969 13.7737 81.4836 13.427C81.6756 13.0803 81.9423 12.8137 82.2836 12.627C82.6249 12.4403 83.0169 12.347 83.4596 12.347C83.8916 12.347 84.2756 12.4377 84.6116 12.619C84.9476 12.8003 85.2089 13.059 85.3956 13.395C85.5876 13.731 85.6836 14.123 85.6836 14.571ZM84.2836 14.211C84.2836 13.9763 84.2036 13.7897 84.0436 13.651C83.8836 13.5123 83.6836 13.443 83.4436 13.443C83.2143 13.443 83.0196 13.5097 82.8596 13.643C82.7049 13.7763 82.6089 13.9657 82.5716 14.211H84.2836ZM86.1333 14.635C86.1333 14.1763 86.2186 13.7737 86.3893 13.427C86.5653 13.0803 86.8026 12.8137 87.1013 12.627C87.4 12.4403 87.7333 12.347 88.1013 12.347C88.416 12.347 88.6906 12.411 88.9253 12.539C89.1653 12.667 89.3493 12.835 89.4773 13.043V12.411H90.8453V16.875H89.4773V16.243C89.344 16.451 89.1573 16.619 88.9173 16.747C88.6826 16.875 88.408 16.939 88.0933 16.939C87.7306 16.939 87.4 16.8457 87.1013 16.659C86.8026 16.467 86.5653 16.1977 86.3893 15.851C86.2186 15.499 86.1333 15.0937 86.1333 14.635ZM89.4773 14.643C89.4773 14.3017 89.3813 14.0323 89.1893 13.835C89.0026 13.6377 88.7733 13.539 88.5013 13.539C88.2293 13.539 87.9973 13.6377 87.8053 13.835C87.6186 14.027 87.5253 14.2937 87.5253 14.635C87.5253 14.9763 87.6186 15.2483 87.8053 15.451C87.9973 15.6483 88.2293 15.747 88.5013 15.747C88.7733 15.747 89.0026 15.6483 89.1893 15.451C89.3813 15.2537 89.4773 14.9843 89.4773 14.643ZM93.203 13.155C93.363 12.9097 93.563 12.7177 93.803 12.579C94.043 12.435 94.3097 12.363 94.603 12.363V13.811H94.227C93.8857 13.811 93.6297 13.8857 93.459 14.035C93.2883 14.179 93.203 14.435 93.203 14.803V16.875H91.835V12.411H93.203V13.155ZM98.3202 12.355V13.491H100.152V14.547H98.3202V15.779H100.392V16.875H96.9522V11.259H100.392V12.355H98.3202ZM104 12.363C104.523 12.363 104.939 12.5337 105.248 12.875C105.563 13.211 105.72 13.675 105.72 14.267V16.875H104.36V14.451C104.36 14.1523 104.283 13.9203 104.128 13.755C103.974 13.5897 103.766 13.507 103.504 13.507C103.243 13.507 103.035 13.5897 102.88 13.755C102.726 13.9203 102.648 14.1523 102.648 14.451V16.875H101.28V12.411H102.648V13.003C102.787 12.8057 102.974 12.651 103.208 12.539C103.443 12.4217 103.707 12.363 104 12.363ZM110.879 14.571C110.879 14.699 110.871 14.8323 110.855 14.971H107.759C107.78 15.2483 107.868 15.4617 108.023 15.611C108.183 15.755 108.378 15.827 108.607 15.827C108.948 15.827 109.186 15.683 109.319 15.395H110.775C110.7 15.6883 110.564 15.9523 110.367 16.187C110.175 16.4217 109.932 16.6057 109.639 16.739C109.346 16.8723 109.018 16.939 108.655 16.939C108.218 16.939 107.828 16.8457 107.487 16.659C107.146 16.4723 106.879 16.2057 106.687 15.859C106.495 15.5123 106.399 15.107 106.399 14.643C106.399 14.179 106.492 13.7737 106.679 13.427C106.871 13.0803 107.138 12.8137 107.479 12.627C107.82 12.4403 108.212 12.347 108.655 12.347C109.087 12.347 109.471 12.4377 109.807 12.619C110.143 12.8003 110.404 13.059 110.591 13.395C110.783 13.731 110.879 14.123 110.879 14.571ZM109.479 14.211C109.479 13.9763 109.399 13.7897 109.239 13.651C109.079 13.5123 108.879 13.443 108.639 13.443C108.41 13.443 108.215 13.5097 108.055 13.643C107.9 13.7763 107.804 13.9657 107.767 14.211H109.479ZM112.969 13.155C113.129 12.9097 113.329 12.7177 113.569 12.579C113.809 12.435 114.075 12.363 114.369 12.363V13.811H113.993C113.651 13.811 113.395 13.8857 113.225 14.035C113.054 14.179 112.969 14.435 112.969 14.803V16.875H111.601V12.411H112.969V13.155ZM116.718 12.347C117.033 12.347 117.308 12.411 117.542 12.539C117.782 12.667 117.966 12.835 118.094 13.043V12.411H119.462V16.867C119.462 17.2777 119.38 17.6483 119.214 17.979C119.054 18.315 118.806 18.5817 118.47 18.779C118.14 18.9763 117.726 19.075 117.23 19.075C116.569 19.075 116.033 18.9177 115.622 18.603C115.212 18.2937 114.977 17.8723 114.918 17.339H116.27C116.313 17.5097 116.414 17.643 116.574 17.739C116.734 17.8403 116.932 17.891 117.166 17.891C117.449 17.891 117.673 17.8083 117.838 17.643C118.009 17.483 118.094 17.2243 118.094 16.867V16.235C117.961 16.443 117.777 16.6137 117.542 16.747C117.308 16.875 117.033 16.939 116.718 16.939C116.35 16.939 116.017 16.8457 115.718 16.659C115.42 16.467 115.182 16.1977 115.006 15.851C114.836 15.499 114.75 15.0937 114.75 14.635C114.75 14.1763 114.836 13.7737 115.006 13.427C115.182 13.0803 115.42 12.8137 115.718 12.627C116.017 12.4403 116.35 12.347 116.718 12.347ZM118.094 14.643C118.094 14.3017 117.998 14.0323 117.806 13.835C117.62 13.6377 117.39 13.539 117.118 13.539C116.846 13.539 116.614 13.6377 116.422 13.835C116.236 14.027 116.142 14.2937 116.142 14.635C116.142 14.9763 116.236 15.2483 116.422 15.451C116.614 15.6483 116.846 15.747 117.118 15.747C117.39 15.747 117.62 15.6483 117.806 15.451C117.998 15.2537 118.094 14.9843 118.094 14.643ZM125.012 12.411L122.212 18.995H120.74L121.764 16.723L119.948 12.411H121.476L122.508 15.203L123.532 12.411H125.012Z" fill="black"/>
</g>
<defs>
<filter id="filter0_d_104_37" x="37.0248" y="10.955" width="91.9873" height="16.12" filterUnits="userSpaceOnUse" color-interpolation-filters="sRGB">
<feFlood flood-opacity="0" result="BackgroundImageFix"/>
<feColorMatrix in="SourceAlpha" type="matrix" values="0 0 0 0 0 0 0 0 0 0 0 0 0 0 0 0 0 0 127 0" result="hardAlpha"/>
<feOffset dy="4"/>
<feGaussianBlur stdDeviation="2"/>
<feComposite in2="hardAlpha" operator="out"/>
<feColorMatrix type="matrix" values="0 0 0 0 0 0 0 0 0 0 0 0 0 0 0 0 0 0 0.25 0"/>
<feBlend mode="normal" in2="BackgroundImageFix" result="effect1_dropShadow_104_37"/>
<feBlend mode="normal" in="SourceGraphic" in2="effect1_dropShadow_104_37" result="shape"/>
</filter>
</defs>
</svg>
